<?xml version="1.0" encoding="UTF-8" standalone="no"?><svg xmlns="http://www.w3.org/2000/svg" xmlns:xlink="http://www.w3.org/1999/xlink" contentStyleType="text/css" height="826px" preserveAspectRatio="none" style="width:902px;height:826px;background:#FFFFFF;" version="1.1" viewBox="0 0 902 826" width="902px" zoomAndPan="magnify"><defs/><g><!--MD5=[b6dcce5e5ef3c84b0b048d11301373dd]
class Game--><g id="elem_Game"><rect codeLine="2" fill="#F1F1F1" height="224.0938" id="Game" rx="2.5" ry="2.5" style="stroke:#181818;stroke-width:0.5;" width="362" x="16.47" y="7"/><ellipse cx="174.22" cy="23" fill="#ADD1B2" rx="11" ry="11" style="stroke:#181818;stroke-width:1.0;"/><path d="M176.9856,18.875 Q177.1419,18.6563 177.3294,18.5469 Q177.5169,18.4375 177.7356,18.4375 Q178.1106,18.4375 178.345,18.6953 Q178.5794,18.9531 178.5794,19.5625 L178.5794,21.0156 Q178.5794,21.625 178.345,21.8906 Q178.1106,22.1563 177.7356,22.1563 Q177.3919,22.1563 177.1888,21.9531 Q176.9856,21.7656 176.8763,21.25 Q176.8294,20.8906 176.6419,20.7031 Q176.3138,20.3281 175.7044,20.1094 Q175.095,19.8906 174.47,19.8906 Q173.7044,19.8906 173.0716,20.2188 Q172.4388,20.5469 171.9466,21.2969 Q171.4544,22.0469 171.4544,23.0781 L171.4544,24.1719 Q171.4544,25.4063 172.345,26.2266 Q173.2356,27.0469 174.8294,27.0469 Q175.7669,27.0469 176.4231,26.7969 Q176.8138,26.6406 177.2356,26.2031 Q177.5013,25.9375 177.6497,25.8594 Q177.7981,25.7813 178.0013,25.7813 Q178.3294,25.7813 178.5872,26.0391 Q178.845,26.2969 178.845,26.6406 Q178.845,26.9844 178.5013,27.3906 Q178.0013,27.9688 177.2044,28.2969 Q176.1263,28.75 174.8294,28.75 Q173.3138,28.75 172.1106,28.125 Q171.1263,27.625 170.4388,26.5547 Q169.7513,25.4844 169.7513,24.2031 L169.7513,23.0469 Q169.7513,21.7188 170.3684,20.5703 Q170.9856,19.4219 172.0794,18.8047 Q173.1731,18.1875 174.4075,18.1875 Q175.1419,18.1875 175.7903,18.3516 Q176.4388,18.5156 176.9856,18.875 Z " fill="#000000"/><text fill="#000000" font-family="sans-serif" font-size="14" lengthAdjust="spacing" textLength="38" x="194.72" y="28.7285">Game</text><line style="stroke:#181818;stroke-width:0.5;" x1="17.47" x2="377.47" y1="39" y2="39"/><text fill="#000000" font-family="sans-serif" font-size="14" lengthAdjust="spacing" textLength="118" x="22.47" y="57.5332">playerOne : Player</text><text fill="#000000" font-family="sans-serif" font-size="14" lengthAdjust="spacing" textLength="117" x="22.47" y="75.1426">playerTwo : Player</text><text fill="#000000" font-family="sans-serif" font-size="14" lengthAdjust="spacing" textLength="133" x="22.47" y="92.752">currentPlayer: Player</text><text fill="#000000" font-family="sans-serif" font-size="14" lengthAdjust="spacing" textLength="87" x="22.47" y="110.3613">board : Board</text><text fill="#000000" font-family="sans-serif" font-size="14" lengthAdjust="spacing" textLength="131" x="22.47" y="127.9707">userInput : UserInput</text><text fill="#000000" font-family="sans-serif" font-size="14" lengthAdjust="spacing" textLength="137" x="22.47" y="145.5801">translator : Translator</text><text fill="#000000" font-family="sans-serif" font-size="14" lengthAdjust="spacing" textLength="179" x="22.47" y="163.1895">outputPrinter : OutputPrinter</text><line style="stroke:#181818;stroke-width:0.5;" x1="17.47" x2="377.47" y1="170.2656" y2="170.2656"/><text fill="#000000" font-family="sans-serif" font-size="14" lengthAdjust="spacing" textLength="76" x="22.47" y="188.7988">start() : void</text><text fill="#000000" font-family="sans-serif" font-size="14" lengthAdjust="spacing" textLength="350" x="22.47" y="206.4082">checkForLanguageChange(userInput: String) : boolean</text><text fill="#000000" font-family="sans-serif" font-size="14" lengthAdjust="spacing" textLength="126" x="22.47" y="224.0176">switchPlayer() : void</text></g><!--MD5=[2cb47ba637a0d19583e6199456f6ad0b]
class Player--><g id="elem_Player"><rect codeLine="16" fill="#F1F1F1" height="83.2188" id="Player" rx="2.5" ry="2.5" style="stroke:#181818;stroke-width:0.5;" width="96" x="268.47" y="736"/><ellipse cx="294.27" cy="752" fill="#ADD1B2" rx="11" ry="11" style="stroke:#181818;stroke-width:1.0;"/><path d="M297.0356,747.875 Q297.1919,747.6563 297.3794,747.5469 Q297.5669,747.4375 297.7856,747.4375 Q298.1606,747.4375 298.395,747.6953 Q298.6294,747.9531 298.6294,748.5625 L298.6294,750.0156 Q298.6294,750.625 298.395,750.8906 Q298.1606,751.1563 297.7856,751.1563 Q297.4419,751.1563 297.2388,750.9531 Q297.0356,750.7656 296.9263,750.25 Q296.8794,749.8906 296.6919,749.7031 Q296.3638,749.3281 295.7544,749.1094 Q295.145,748.8906 294.52,748.8906 Q293.7544,748.8906 293.1216,749.2188 Q292.4888,749.5469 291.9966,750.2969 Q291.5044,751.0469 291.5044,752.0781 L291.5044,753.1719 Q291.5044,754.4063 292.395,755.2266 Q293.2856,756.0469 294.8794,756.0469 Q295.8169,756.0469 296.4731,755.7969 Q296.8638,755.6406 297.2856,755.2031 Q297.5513,754.9375 297.6997,754.8594 Q297.8481,754.7813 298.0513,754.7813 Q298.3794,754.7813 298.6372,755.0391 Q298.895,755.2969 298.895,755.6406 Q298.895,755.9844 298.5513,756.3906 Q298.0513,756.9688 297.2544,757.2969 Q296.1763,757.75 294.8794,757.75 Q293.3638,757.75 292.1606,757.125 Q291.1763,756.625 290.4888,755.5547 Q289.8013,754.4844 289.8013,753.2031 L289.8013,752.0469 Q289.8013,750.7188 290.4184,749.5703 Q291.0356,748.4219 292.1294,747.8047 Q293.2231,747.1875 294.4575,747.1875 Q295.1919,747.1875 295.8403,747.3516 Q296.4888,747.5156 297.0356,747.875 Z " fill="#000000"/><text fill="#000000" font-family="sans-serif" font-size="14" lengthAdjust="spacing" textLength="40" x="310.67" y="757.7285">Player</text><line style="stroke:#181818;stroke-width:0.5;" x1="269.47" x2="363.47" y1="768" y2="768"/><text fill="#000000" font-family="sans-serif" font-size="14" lengthAdjust="spacing" textLength="77" x="274.47" y="786.5332">playerId : int</text><text fill="#000000" font-family="sans-serif" font-size="14" lengthAdjust="spacing" textLength="84" x="274.47" y="804.1426">name : String</text><line style="stroke:#181818;stroke-width:0.5;" x1="269.47" x2="363.47" y1="811.2188" y2="811.2188"/></g><!--MD5=[9563755d011c5cec7ec66dc53565a59e]
class Board--><g id="elem_Board"><rect codeLine="21" fill="#F1F1F1" height="153.6563" id="Board" rx="2.5" ry="2.5" style="stroke:#181818;stroke-width:0.5;" width="410" x="111.47" y="522"/><ellipse cx="293.22" cy="538" fill="#ADD1B2" rx="11" ry="11" style="stroke:#181818;stroke-width:1.0;"/><path d="M295.9856,533.875 Q296.1419,533.6563 296.3294,533.5469 Q296.5169,533.4375 296.7356,533.4375 Q297.1106,533.4375 297.345,533.6953 Q297.5794,533.9531 297.5794,534.5625 L297.5794,536.0156 Q297.5794,536.625 297.345,536.8906 Q297.1106,537.1563 296.7356,537.1563 Q296.3919,537.1563 296.1888,536.9531 Q295.9856,536.7656 295.8763,536.25 Q295.8294,535.8906 295.6419,535.7031 Q295.3138,535.3281 294.7044,535.1094 Q294.095,534.8906 293.47,534.8906 Q292.7044,534.8906 292.0716,535.2188 Q291.4388,535.5469 290.9466,536.2969 Q290.4544,537.0469 290.4544,538.0781 L290.4544,539.1719 Q290.4544,540.4063 291.345,541.2266 Q292.2356,542.0469 293.8294,542.0469 Q294.7669,542.0469 295.4231,541.7969 Q295.8138,541.6406 296.2356,541.2031 Q296.5013,540.9375 296.6497,540.8594 Q296.7981,540.7813 297.0013,540.7813 Q297.3294,540.7813 297.5872,541.0391 Q297.845,541.2969 297.845,541.6406 Q297.845,541.9844 297.5013,542.3906 Q297.0013,542.9688 296.2044,543.2969 Q295.1263,543.75 293.8294,543.75 Q292.3138,543.75 291.1106,543.125 Q290.1263,542.625 289.4388,541.5547 Q288.7513,540.4844 288.7513,539.2031 L288.7513,538.0469 Q288.7513,536.7188 289.3684,535.5703 Q289.9856,534.4219 291.0794,533.8047 Q292.1731,533.1875 293.4075,533.1875 Q294.1419,533.1875 294.7903,533.3516 Q295.4388,533.5156 295.9856,533.875 Z " fill="#000000"/><text fill="#000000" font-family="sans-serif" font-size="14" lengthAdjust="spacing" textLength="38" x="313.72" y="543.7285">Board</text><line style="stroke:#181818;stroke-width:0.5;" x1="112.47" x2="520.47" y1="554" y2="554"/><text fill="#000000" font-family="sans-serif" font-size="14" lengthAdjust="spacing" textLength="117" x="117.47" y="572.5332">currentBoard : List</text><line style="stroke:#181818;stroke-width:0.5;" x1="112.47" x2="520.47" y1="579.6094" y2="579.6094"/><text fill="#000000" font-family="sans-serif" font-size="14" lengthAdjust="spacing" textLength="398" x="117.47" y="598.1426">updateBoard(newPosition: int, currentPlayer : Player) : boolean</text><text fill="#000000" font-family="sans-serif" font-size="14" lengthAdjust="spacing" textLength="282" x="117.47" y="615.752">validateMove(selectedPosition: int) : boolean</text><text fill="#000000" font-family="sans-serif" font-size="14" lengthAdjust="spacing" textLength="145" x="117.47" y="633.3613">checkGameState() : int</text><text fill="#000000" font-family="sans-serif" font-size="14" lengthAdjust="spacing" textLength="325" x="117.47" y="650.9707">getWinner(player1: Player, player2: Player) : Player</text><text fill="#000000" font-family="sans-serif" font-size="14" lengthAdjust="spacing" textLength="316" x="117.47" y="668.5801">getLoser(player1: Player, player2: Player) : Player</text></g><!--MD5=[5c3937593241a38eeb9994b6a340444a]
class Translator--><g id="elem_Translator"><rect codeLine="31" fill="#F1F1F1" height="136.0469" id="Translator" rx="2.5" ry="2.5" style="stroke:#181818;stroke-width:0.5;" width="268" x="627.47" y="531"/><ellipse cx="724.72" cy="547" fill="#ADD1B2" rx="11" ry="11" style="stroke:#181818;stroke-width:1.0;"/><path d="M727.4856,542.875 Q727.6419,542.6563 727.8294,542.5469 Q728.0169,542.4375 728.2356,542.4375 Q728.6106,542.4375 728.845,542.6953 Q729.0794,542.9531 729.0794,543.5625 L729.0794,545.0156 Q729.0794,545.625 728.845,545.8906 Q728.6106,546.1563 728.2356,546.1563 Q727.8919,546.1563 727.6888,545.9531 Q727.4856,545.7656 727.3763,545.25 Q727.3294,544.8906 727.1419,544.7031 Q726.8138,544.3281 726.2044,544.1094 Q725.595,543.8906 724.97,543.8906 Q724.2044,543.8906 723.5716,544.2188 Q722.9388,544.5469 722.4466,545.2969 Q721.9544,546.0469 721.9544,547.0781 L721.9544,548.1719 Q721.9544,549.4063 722.845,550.2266 Q723.7356,551.0469 725.3294,551.0469 Q726.2669,551.0469 726.9231,550.7969 Q727.3138,550.6406 727.7356,550.2031 Q728.0013,549.9375 728.1497,549.8594 Q728.2981,549.7813 728.5013,549.7813 Q728.8294,549.7813 729.0872,550.0391 Q729.345,550.2969 729.345,550.6406 Q729.345,550.9844 729.0013,551.3906 Q728.5013,551.9688 727.7044,552.2969 Q726.6263,552.75 725.3294,552.75 Q723.8138,552.75 722.6106,552.125 Q721.6263,551.625 720.9388,550.5547 Q720.2513,549.4844 720.2513,548.2031 L720.2513,547.0469 Q720.2513,545.7188 720.8684,544.5703 Q721.4856,543.4219 722.5794,542.8047 Q723.6731,542.1875 724.9075,542.1875 Q725.6419,542.1875 726.2903,542.3516 Q726.9388,542.5156 727.4856,542.875 Z " fill="#000000"/><text fill="#000000" font-family="sans-serif" font-size="14" lengthAdjust="spacing" textLength="65" x="745.22" y="552.7285">Translator</text><line style="stroke:#181818;stroke-width:0.5;" x1="628.47" x2="894.47" y1="563" y2="563"/><text fill="#000000" font-family="sans-serif" font-size="14" lengthAdjust="spacing" textLength="250" x="633.47" y="581.5332">translationsLang1 : Map&lt;String, String&gt;</text><text fill="#000000" font-family="sans-serif" font-size="14" lengthAdjust="spacing" textLength="250" x="633.47" y="599.1426">translationsLang2 : Map&lt;String, String&gt;</text><text fill="#000000" font-family="sans-serif" font-size="14" lengthAdjust="spacing" textLength="165" x="633.47" y="616.752">languages : Array&lt;String&gt;</text><text fill="#000000" font-family="sans-serif" font-size="14" lengthAdjust="spacing" textLength="158" x="633.47" y="634.3613">currentLanguage : String</text><line style="stroke:#181818;stroke-width:0.5;" x1="628.47" x2="894.47" y1="641.4375" y2="641.4375"/><text fill="#000000" font-family="sans-serif" font-size="14" lengthAdjust="spacing" textLength="256" x="633.47" y="659.9707">translate(toBeTranslated: String) : String</text></g><!--MD5=[ae8164544400dcefa93f54395bcd9b35]
class UserInput--><g id="elem_UserInput"><rect codeLine="40" fill="#F1F1F1" height="83.2188" id="UserInput" rx="2.5" ry="2.5" style="stroke:#181818;stroke-width:0.5;" width="151" x="186.97" y="335"/><ellipse cx="228.52" cy="351" fill="#ADD1B2" rx="11" ry="11" style="stroke:#181818;stroke-width:1.0;"/><path d="M231.2856,346.875 Q231.4419,346.6563 231.6294,346.5469 Q231.8169,346.4375 232.0356,346.4375 Q232.4106,346.4375 232.645,346.6953 Q232.8794,346.9531 232.8794,347.5625 L232.8794,349.0156 Q232.8794,349.625 232.645,349.8906 Q232.4106,350.1563 232.0356,350.1563 Q231.6919,350.1563 231.4888,349.9531 Q231.2856,349.7656 231.1763,349.25 Q231.1294,348.8906 230.9419,348.7031 Q230.6138,348.3281 230.0044,348.1094 Q229.395,347.8906 228.77,347.8906 Q228.0044,347.8906 227.3716,348.2188 Q226.7388,348.5469 226.2466,349.2969 Q225.7544,350.0469 225.7544,351.0781 L225.7544,352.1719 Q225.7544,353.4063 226.645,354.2266 Q227.5356,355.0469 229.1294,355.0469 Q230.0669,355.0469 230.7231,354.7969 Q231.1138,354.6406 231.5356,354.2031 Q231.8013,353.9375 231.9497,353.8594 Q232.0981,353.7813 232.3013,353.7813 Q232.6294,353.7813 232.8872,354.0391 Q233.145,354.2969 233.145,354.6406 Q233.145,354.9844 232.8013,355.3906 Q232.3013,355.9688 231.5044,356.2969 Q230.4263,356.75 229.1294,356.75 Q227.6138,356.75 226.4106,356.125 Q225.4263,355.625 224.7388,354.5547 Q224.0513,353.4844 224.0513,352.2031 L224.0513,351.0469 Q224.0513,349.7188 224.6684,348.5703 Q225.2856,347.4219 226.3794,346.8047 Q227.4731,346.1875 228.7075,346.1875 Q229.4419,346.1875 230.0903,346.3516 Q230.7388,346.5156 231.2856,346.875 Z " fill="#000000"/><text fill="#000000" font-family="sans-serif" font-size="14" lengthAdjust="spacing" textLength="60" x="248.42" y="356.7285">UserInput</text><line style="stroke:#181818;stroke-width:0.5;" x1="187.97" x2="336.97" y1="367" y2="367"/><text fill="#000000" font-family="sans-serif" font-size="14" lengthAdjust="spacing" textLength="116" x="192.97" y="385.5332">scanner : Scanner</text><line style="stroke:#181818;stroke-width:0.5;" x1="187.97" x2="336.97" y1="392.6094" y2="392.6094"/><text fill="#000000" font-family="sans-serif" font-size="14" lengthAdjust="spacing" textLength="139" x="192.97" y="411.1426">getUserInput() : String</text></g><!--MD5=[ff803572f7c59b0f80a07510d726917b]
class OutputPrinter--><g id="elem_OutputPrinter"><rect codeLine="46" fill="#F1F1F1" height="171.2656" id="OutputPrinter" rx="2.5" ry="2.5" style="stroke:#181818;stroke-width:0.5;" width="403" x="372.97" y="291"/><ellipse cx="527.72" cy="307" fill="#ADD1B2" rx="11" ry="11" style="stroke:#181818;stroke-width:1.0;"/><path d="M530.4856,302.875 Q530.6419,302.6563 530.8294,302.5469 Q531.0169,302.4375 531.2356,302.4375 Q531.6106,302.4375 531.845,302.6953 Q532.0794,302.9531 532.0794,303.5625 L532.0794,305.0156 Q532.0794,305.625 531.845,305.8906 Q531.6106,306.1563 531.2356,306.1563 Q530.8919,306.1563 530.6888,305.9531 Q530.4856,305.7656 530.3763,305.25 Q530.3294,304.8906 530.1419,304.7031 Q529.8138,304.3281 529.2044,304.1094 Q528.595,303.8906 527.97,303.8906 Q527.2044,303.8906 526.5716,304.2188 Q525.9388,304.5469 525.4466,305.2969 Q524.9544,306.0469 524.9544,307.0781 L524.9544,308.1719 Q524.9544,309.4063 525.845,310.2266 Q526.7356,311.0469 528.3294,311.0469 Q529.2669,311.0469 529.9231,310.7969 Q530.3138,310.6406 530.7356,310.2031 Q531.0013,309.9375 531.1497,309.8594 Q531.2981,309.7813 531.5013,309.7813 Q531.8294,309.7813 532.0872,310.0391 Q532.345,310.2969 532.345,310.6406 Q532.345,310.9844 532.0013,311.3906 Q531.5013,311.9688 530.7044,312.2969 Q529.6263,312.75 528.3294,312.75 Q526.8138,312.75 525.6106,312.125 Q524.6263,311.625 523.9388,310.5547 Q523.2513,309.4844 523.2513,308.2031 L523.2513,307.0469 Q523.2513,305.7188 523.8684,304.5703 Q524.4856,303.4219 525.5794,302.8047 Q526.6731,302.1875 527.9075,302.1875 Q528.6419,302.1875 529.2903,302.3516 Q529.9388,302.5156 530.4856,302.875 Z " fill="#000000"/><text fill="#000000" font-family="sans-serif" font-size="14" lengthAdjust="spacing" textLength="85" x="548.22" y="312.7285">OutputPrinter</text><line style="stroke:#181818;stroke-width:0.5;" x1="373.97" x2="774.97" y1="323" y2="323"/><text fill="#000000" font-family="sans-serif" font-size="14" lengthAdjust="spacing" textLength="137" x="378.97" y="341.5332">translator : Translator</text><line style="stroke:#181818;stroke-width:0.5;" x1="373.97" x2="774.97" y1="348.6094" y2="348.6094"/><text fill="#000000" font-family="sans-serif" font-size="14" lengthAdjust="spacing" textLength="148" x="378.97" y="367.1426">printInstructions() : void</text><text fill="#000000" font-family="sans-serif" font-size="14" lengthAdjust="spacing" textLength="197" x="378.97" y="384.752">printBoard(board: Board) : void</text><text fill="#000000" font-family="sans-serif" font-size="14" lengthAdjust="spacing" textLength="391" x="378.97" y="402.3613">printGameEndedWithWin(winner: Player, looser: Player) : void</text><text fill="#000000" font-family="sans-serif" font-size="14" lengthAdjust="spacing" textLength="329" x="378.97" y="419.9707">printGameEndedWithStalemate(board: Board) : void</text><text fill="#000000" font-family="sans-serif" font-size="14" lengthAdjust="spacing" textLength="244" x="378.97" y="437.5801">printInvalidMove(coordinate : int) : void</text><text fill="#000000" font-family="sans-serif" font-size="14" lengthAdjust="spacing" textLength="190" x="378.97" y="455.1895">printChangeLanguage() : void</text></g><!--MD5=[021660fde7976bc4fb5bf1d3406c1afc]
link OutputPrinter to Board--><g id="link_OutputPrinter_Board"><path codeLine="56" d="M475.46,462.12 C453.79,480.64 430.92,500.19 409.49,518.5 " fill="none" id="OutputPrinter-to-Board" style="stroke:#181818;stroke-width:1.0;stroke-dasharray:7.0,7.0;"/><polygon fill="#181818" points="405.51,521.9,414.9465,519.0799,409.3063,518.646,409.7401,513.0059,405.51,521.9" style="stroke:#181818;stroke-width:1.0;"/></g><!--MD5=[56702a1d5ce96b27f1392d92697cb190]
link OutputPrinter to Translator--><g id="link_OutputPrinter_Translator"><path codeLine="58" d="M646.23,462.12 C664.37,483.5 683.65,506.24 701.16,526.88 " fill="none" id="OutputPrinter-to-Translator" style="stroke:#181818;stroke-width:1.0;stroke-dasharray:7.0,7.0;"/><polygon fill="#181818" points="704.4,530.71,701.6385,521.2562,701.1696,526.8936,695.5323,526.4248,704.4,530.71" style="stroke:#181818;stroke-width:1.0;"/></g><!--MD5=[6e76493e5dc1f49449e2d11bd9e0f132]
link OutputPrinter to Player--><g id="link_OutputPrinter_Player"><path codeLine="60" d="M585.25,462.1 C588.88,526.71 583.39,614.76 538.47,676 C498.35,730.69 421.41,756.3 369.5,767.8 " fill="none" id="OutputPrinter-to-Player" style="stroke:#181818;stroke-width:1.0;stroke-dasharray:7.0,7.0;"/><polygon fill="#181818" points="364.56,768.87,374.2024,770.8762,369.4469,767.8126,372.5105,763.0571,364.56,768.87" style="stroke:#181818;stroke-width:1.0;"/></g><!--MD5=[6b6b9e8ceff4e9e58f06e15491e15318]
link Game to Player--><g id="link_Game_Player"><path codeLine="62" d="M133.1,231.13 C73.43,350.3 6,540.63 93.47,676 C130.76,733.7 209.98,758.61 263.24,769.13 " fill="none" id="Game-to-Player" style="stroke:#181818;stroke-width:1.0;stroke-dasharray:7.0,7.0;"/><polygon fill="#181818" points="268.31,770.1,260.2249,764.4758,263.3996,769.1579,258.7175,772.3325,268.31,770.1" style="stroke:#181818;stroke-width:1.0;"/></g><!--MD5=[15c8f9ca3aac13d865864b4eb5314ef1]
link Game to Board--><g id="link_Game_Board"><path codeLine="64" d="M162.22,231.1 C146.5,300.26 137.79,389.54 169.47,462 C178.47,482.58 192.29,501.44 207.92,518.13 " fill="none" id="Game-to-Board" style="stroke:#181818;stroke-width:1.0;stroke-dasharray:7.0,7.0;"/><polygon fill="#181818" points="211.5,521.88,208.1878,512.6048,208.051,518.26,202.3958,518.1232,211.5,521.88" style="stroke:#181818;stroke-width:1.0;"/></g><!--MD5=[1827301d13d6011dc43a98abba026265]
link Game to UserInput--><g id="link_Game_UserInput"><path codeLine="66" d="M225.79,231.32 C234.62,266.01 243.86,302.34 250.86,329.85 " fill="none" id="Game-to-UserInput" style="stroke:#181818;stroke-width:1.0;stroke-dasharray:7.0,7.0;"/><polygon fill="#181818" points="252.14,334.89,253.8041,325.1827,250.9105,330.0435,246.0497,327.1499,252.14,334.89" style="stroke:#181818;stroke-width:1.0;"/></g><!--MD5=[2ab65500f0890bcd176615e811c8f3a8]
link Game to OutputPrinter--><g id="link_Game_OutputPrinter"><path codeLine="68" d="M361.46,231.14 C389.54,250.17 418.36,269.7 445.37,288.01 " fill="none" id="Game-to-OutputPrinter" style="stroke:#181818;stroke-width:1.0;stroke-dasharray:7.0,7.0;"/><polygon fill="#181818" points="449.69,290.94,444.493,282.574,445.554,288.1304,439.9976,289.1915,449.69,290.94" style="stroke:#181818;stroke-width:1.0;"/></g><!--MD5=[00e54be0a1f2b5aa8ea24ce29c236bbb]
link Board to Player--><g id="link_Board_Player"><path codeLine="70" d="M316.47,676.13 C316.47,694.73 316.47,714.07 316.47,730.74 " fill="none" id="Board-to-Player" style="stroke:#181818;stroke-width:1.0;stroke-dasharray:7.0,7.0;"/><polygon fill="#181818" points="316.47,735.83,320.47,726.83,316.47,730.83,312.47,726.83,316.47,735.83" style="stroke:#181818;stroke-width:1.0;"/></g><!--MD5=[d4374c53a332ccd9b3f1a13a5f34c21e]
@startuml TicTacToe

class Game {
    playerOne : Player
    playerTwo : Player
    currentPlayer: Player
    board : Board
    userInput : UserInput
    translator : Translator
    outputPrinter : OutputPrinter

    start() : void
    checkForLanguageChange(userInput: String) : boolean
    switchPlayer() : void
}

class Player {
    playerId : int
    name : String
}

class Board {
    currentBoard : List

    updateBoard(newPosition: int, currentPlayer : Player) : boolean
    validateMove(selectedPosition: int) : boolean
    checkGameState() : int
    getWinner(player1: Player, player2: Player) : Player
    getLoser(player1: Player, player2: Player) : Player
}

class Translator {
    translationsLang1 : Map<String, String> 
    translationsLang2 : Map<String, String>
    languages : Array<String>
    currentLanguage : String

    translate(toBeTranslated: String) : String
}

class UserInput {
    scanner : Scanner

    getUserInput() : String
}

class OutputPrinter {
    translator : Translator
    printInstructions() : void
    printBoard(board: Board) : void
    printGameEndedWithWin(winner: Player, looser: Player) : void
    printGameEndedWithStalemate(board: Board) : void
    printInvalidMove(coordinate : int) : void
    printChangeLanguage() : void
}

OutputPrinter ..> Board

OutputPrinter ..> Translator

OutputPrinter ..> Player

Game ..> Player

Game ..> Board

Game ..> UserInput

Game ..> OutputPrinter

Board ..> Player

@enduml

PlantUML version 1.2022.7(Mon Aug 22 19:01:30 CEST 2022)
(GPL source distribution)
Java Runtime: Java(TM) SE Runtime Environment
JVM: Java HotSpot(TM) 64-Bit Server VM
Default Encoding: Cp1252
Language: de
Country: CH
--></g></svg>